<?xml version="1.0" encoding="utf-8"?>
<!-- Generator: Adobe Illustrator 23.0.4, SVG Export Plug-In . SVG Version: 6.00 Build 0)  -->
<svg version="1.1" id="Capa_1" xmlns="http://www.w3.org/2000/svg" xmlns:xlink="http://www.w3.org/1999/xlink" x="0px" y="0px"
	 viewBox="0 0 878.6 1096" style="enable-background:new 0 0 878.6 1096;" xml:space="preserve">
<style type="text/css">
	
		.st0{fill:none;stroke:#E1DCD9;stroke-width:30;stroke-linecap:round;stroke-linejoin:round;stroke-miterlimit:10;stroke-dasharray:0,20;}
	
		.st1{fill:none;stroke:#E1DCD9;stroke-width:28.0548;stroke-linecap:round;stroke-linejoin:round;stroke-miterlimit:10;stroke-dasharray:0,18.7032;}
	.st2{clip-path:url(#SVGID_2_);fill:#E1DCD9;}
	.st3{clip-path:url(#SVGID_2_);}
	
		.st4{fill:none;stroke:#080808;stroke-width:30;stroke-linecap:round;stroke-linejoin:round;stroke-miterlimit:10;stroke-dasharray:0,20;}
	
		.st5{fill:none;stroke:#080808;stroke-width:28.0548;stroke-linecap:round;stroke-linejoin:round;stroke-miterlimit:10;stroke-dasharray:0,18.7032;}
</style>
<g>
	<path class="st0" d="M224.3,654.7c0,0-36.1,7.9-41.3,17.9c-22.9,43.6,42.5,144.2,38.6,193.3c-2.7,32.9-52.1,91.2-46.4,123.7
		c4.5,25.9,68.4,80.2,68.4,80.2"/>
	<path class="st0" d="M112.2,735.1c-35.2,77.6,68,166.5,95.9,131.2c16.7-21.2-70.2-60.6-60.3-97.8"/>
	<path class="st0" d="M136.8,903.4c-10.3,43.4,45.7,42.7,45.7,42.7"/>
	<path class="st0" d="M89.7,691.3c0,0,63.9-54.3,68.4-80.2c5.7-32.6-43.7-90.8-46.4-123.8c-3.9-49.1,61.5-149.7,38.6-193.3
		c-5.2-10-41.3-17.9-41.3-17.9"/>
	<path class="st0" d="M185.5,389.8c9.9,37.2-77,76.6-60.3,97.8c27.9,35.4,131.1-53.6,95.9-131.2"/>
	<path class="st0" d="M150.8,567.5c0,0,56.1,0.7,45.7-42.7"/>
	<path class="st0" d="M369.6,800.6c-73.2,117.7,5.6,190.6,0.8,242.4c-3.2,34.7-56.2,95.6-50.6,130c4.5,27.4,24.6,63.5,60.4,28.6"/>
	<path class="st0" d="M251.9,912.4c-38.1,81.4,85.4,167.7,115.3,130.8c17.9-22.2-69-48.5-68.4-72.2c0.4-15.4,16-18.3,16-18.3"/>
	<path class="st0" d="M280.5,1081.5c-11.4,45.7,53.1,42.3,53.1,42.3"/>
	<path class="st0" d="M417.8,849.2c6,69.8-76.9,73.8-76.9,99.8"/>
	<path class="st0" d="M443.4,937c0,29.2-73.4,61.7-73.4,90.9"/>
	<path class="st0" d="M443.4,1004.2c7.3,77.3-73.4,47.9-87.2,77.3"/>
	<path class="st0" d="M329.1,1201.2c-7.3-77.3,73.4-47.9,87.2-77.3"/>
	<path class="st0" d="M308.3,881c35.8,34.9,55.9-1.2,60.4-28.6c5.6-34.4-47.4-95.3-50.6-130c-4.8-51.8,74-124.7,0.8-242.4"/>
	<path class="st0" d="M373.7,632.1c0,0,15.6,2.9,16,18.3c0.6,23.7-86.3,50-68.4,72.2c29.9,36.9,153.4-49.4,115.3-130.8"/>
	<path class="st0" d="M354.9,803.2c0,0,64.5,3.4,53.1-42.3"/>
	<path class="st0" d="M347.6,628.4c0-26-82.9-30-76.9-99.8"/>
	<path class="st0" d="M318.5,707.3c0-29.2-73.4-61.7-73.4-90.9"/>
	<path class="st0" d="M332.3,760.9c-13.8-29.4-94.5,0-87.2-77.3"/>
	<path class="st0" d="M272.2,803.3c13.8,29.4,94.5,0,87.2,77.3"/>
	<path class="st0" d="M369.6,113.1c-73.2,117.7,5.6,190.6,0.8,242.4c-3.2,34.7-56.2,95.6-50.6,130c4.5,27.4,24.6,63.5,60.4,28.6"/>
	<path class="st0" d="M251.9,224.9c-38.1,81.4,85.4,167.7,115.3,130.8c17.9-22.2-69-48.5-68.4-72.2c0.4-15.4,16-18.3,16-18.3"/>
	<path class="st0" d="M280.5,394c-11.4,45.7,53.1,42.3,53.1,42.3"/>
	<path class="st0" d="M417.8,161.7c6,69.8-76.9,73.8-76.9,99.8"/>
	<path class="st0" d="M443.4,249.5c0,29.2-73.4,61.7-73.4,90.9"/>
	<path class="st1" d="M443.5,316.7c6.4,77.3-64.2,47.9-76.3,77.3"/>
	<path class="st0" d="M329.1,513.7c-7.3-77.3,73.4-47.9,87.2-77.3"/>
	<path class="st0" d="M598.4,714.7c0,0-36.1,7.9-41.3,17.9c-22.9,43.6,42.5,144.2,38.6,193.3c-2.7,32.9-52.1,91.2-46.4,123.7
		c4.5,25.9,68.4,80.2,68.4,80.2"/>
	<path class="st0" d="M486.4,795.1c-35.2,77.6,68,166.5,95.9,131.2c16.7-21.2-70.2-60.6-60.3-97.8"/>
	<path class="st0" d="M510.9,963.4c-10.3,43.4,45.7,42.7,45.7,42.7"/>
	<path class="st0" d="M463.8,751.3c0,0,63.9-54.3,68.4-80.2c5.7-32.6-43.7-90.8-46.4-123.8c-3.9-49.1,61.5-149.7,38.6-193.3
		c-5.2-10-41.3-17.9-41.3-17.9"/>
	<path class="st0" d="M559.6,449.8c9.9,37.2-77,76.6-60.3,97.8c27.9,35.4,131.1-53.6,95.9-131.2"/>
	<path class="st0" d="M525,627.5c0,0,56.1,0.7,45.7-42.7"/>
	<g>
		<path class="st0" d="M566.7,354.3c-0.6-33.1-60.2-80.9-69.1-112.7c-13.2-47.5,31.9-158.7,1.1-197.1c-7-8.8-43.9-9.7-43.9-9.7"/>
		<path class="st0" d="M551.5,131.9c16.8,34.6-61,89.9-40.6,107.5c34.1,29.4,118.5-77.5,69.2-147"/>
		<path class="st0" d="M551.3,313c0,0,55.2-10,36.8-50.6"/>
	</g>
	<path class="st0" d="M743.7,860.6c-73.2,117.7,5.6,190.6,0.8,242.4c-3.2,34.7-56.2,95.6-50.6,130c4.5,27.4,24.6,63.5,60.4,28.6"/>
	<path class="st0" d="M626,972.4c-38.1,81.4,85.4,167.7,115.3,130.8c17.9-22.2-69-48.5-68.4-72.2c0.4-15.4,16-18.3,16-18.3"/>
	<path class="st0" d="M654.6,1141.5c-11.4,45.7,53.1,42.3,53.1,42.3"/>
	<path class="st0" d="M791.9,909.2c6,69.8-76.9,73.8-76.9,99.8"/>
	<path class="st0" d="M817.5,997c0,29.2-73.4,61.7-73.4,90.9"/>
	<path class="st0" d="M817.5,1064.2c7.3,77.3-73.4,47.9-87.2,77.3"/>
	<path class="st0" d="M703.2,1261.2c-7.3-77.3,73.4-47.9,87.2-77.3"/>
	<path class="st0" d="M682.5,941c35.8,34.9,55.9-1.2,60.4-28.6c5.6-34.4-47.4-95.3-50.6-130c-4.8-51.8,74-124.7,0.8-242.4"/>
	<path class="st0" d="M747.9,692.1c0,0,15.6,2.9,16,18.3c0.6,23.7-86.3,50-68.4,72.2c29.9,36.9,153.4-49.4,115.3-130.8"/>
	<path class="st0" d="M729.1,863.2c0,0,64.5,3.4,53.1-42.3"/>
	<path class="st0" d="M721.8,688.4c0-26-82.9-30-76.9-99.8"/>
	<path class="st0" d="M692.7,767.3c0-29.2-73.4-61.7-73.4-90.9"/>
	<path class="st0" d="M706.5,820.9c-13.8-29.4-94.5,0-87.2-77.3"/>
	<path class="st0" d="M646.4,863.3c13.8,29.4,94.5,0,87.2,77.3"/>
	<path class="st0" d="M743.7,173.1c-73.2,117.7,5.6,190.6,0.8,242.4c-3.2,34.7-56.2,95.6-50.6,130c4.5,27.4,24.6,63.5,60.4,28.6"/>
	<path class="st0" d="M626,284.9c-38.1,81.4,85.4,167.7,115.3,130.8c17.9-22.2-69-48.5-68.4-72.2c0.4-15.4,16-18.3,16-18.3"/>
	<path class="st0" d="M654.6,454c-11.4,45.7,53.1,42.3,53.1,42.3"/>
	<path class="st0" d="M791.9,221.7c6,69.8-76.9,73.8-76.9,99.8"/>
	<path class="st0" d="M817.5,309.5c0,29.2-73.4,61.7-73.4,90.9"/>
	<path class="st0" d="M817.5,376.7c7.3,77.3-73.4,47.9-87.2,77.3"/>
	<path class="st0" d="M703.2,573.7c-7.3-77.3,73.4-47.9,87.2-77.3"/>
</g>
<title>img-resume</title>
<g>
	<defs>
		<path id="SVGID_1_" d="M439.3,171L439.3,171c198.5,0,359.5,161,359.5,359.5V1096l0,0h-719l0,0V530.5C79.8,332,240.8,171,439.3,171
			z"/>
	</defs>
	<clipPath id="SVGID_2_">
		<use xlink:href="#SVGID_1_"  style="overflow:visible;"/>
	</clipPath>
	<path class="st2" d="M439.3,171L439.3,171c198.5,0,359.5,161,359.5,359.5V1096l0,0h-719l0,0V530.5C79.8,332,240.8,171,439.3,171z"
		/>
	<g class="st3">
		<path class="st4" d="M224.3,654.7c0,0-36.1,7.9-41.3,17.9c-22.9,43.6,42.5,144.2,38.6,193.3c-2.7,32.9-52.1,91.2-46.4,123.7
			c4.5,25.9,68.4,80.2,68.4,80.2"/>
		<path class="st4" d="M112.2,735.1c-35.2,77.6,68,166.5,95.9,131.2c16.7-21.2-70.2-60.6-60.3-97.8"/>
		<path class="st4" d="M136.8,903.4c-10.3,43.4,45.7,42.7,45.7,42.7"/>
		<path class="st4" d="M89.7,691.3c0,0,63.9-54.3,68.4-80.2c5.7-32.6-43.7-90.8-46.4-123.8c-3.9-49.1,61.5-149.7,38.6-193.3
			c-5.2-10-41.3-17.9-41.3-17.9"/>
		<path class="st4" d="M185.5,389.8c9.9,37.2-77,76.6-60.3,97.8c27.9,35.4,131.1-53.6,95.9-131.2"/>
		<path class="st4" d="M150.8,567.5c0,0,56.1,0.7,45.7-42.7"/>
		<path class="st4" d="M369.6,800.6c-73.2,117.7,5.6,190.6,0.8,242.4c-3.2,34.7-56.2,95.6-50.6,130c4.5,27.4,24.6,63.5,60.4,28.6"/>
		<path class="st4" d="M251.9,912.4c-38.1,81.4,85.4,167.7,115.3,130.8c17.9-22.2-69-48.5-68.4-72.2c0.4-15.4,16-18.3,16-18.3"/>
		<path class="st4" d="M280.5,1081.5c-11.4,45.7,53.1,42.3,53.1,42.3"/>
		<path class="st4" d="M417.8,849.2c6,69.8-76.9,73.8-76.9,99.8"/>
		<path class="st4" d="M443.4,937c0,29.2-73.4,61.7-73.4,90.9"/>
		<path class="st4" d="M443.4,1004.2c7.3,77.3-73.4,47.9-87.2,77.3"/>
		<path class="st4" d="M329.1,1201.2c-7.3-77.3,73.4-47.9,87.2-77.3"/>
		<path class="st4" d="M308.3,881c35.8,34.9,55.9-1.2,60.4-28.6c5.6-34.4-47.4-95.3-50.6-130c-4.8-51.8,74-124.7,0.8-242.4"/>
		<path class="st4" d="M373.7,632.1c0,0,15.6,2.9,16,18.3c0.6,23.7-86.3,50-68.4,72.2c29.9,36.9,153.4-49.4,115.3-130.8"/>
		<path class="st4" d="M354.9,803.2c0,0,64.5,3.4,53.1-42.3"/>
		<path class="st4" d="M347.6,628.4c0-26-82.9-30-76.9-99.8"/>
		<path class="st4" d="M318.5,707.3c0-29.2-73.4-61.7-73.4-90.9"/>
		<path class="st4" d="M332.3,760.9c-13.8-29.4-94.5,0-87.2-77.3"/>
		<path class="st4" d="M272.2,803.3c13.8,29.4,94.5,0,87.2,77.3"/>
		<path class="st4" d="M369.6,113.1c-73.2,117.7,5.6,190.6,0.8,242.4c-3.2,34.7-56.2,95.6-50.6,130c4.5,27.4,24.6,63.5,60.4,28.6"/>
		<path class="st4" d="M251.9,224.9c-38.1,81.4,85.4,167.7,115.3,130.8c17.9-22.2-69-48.5-68.4-72.2c0.4-15.4,16-18.3,16-18.3"/>
		<path class="st4" d="M280.5,394c-11.4,45.7,53.1,42.3,53.1,42.3"/>
		<path class="st4" d="M417.8,161.7c6,69.8-76.9,73.8-76.9,99.8"/>
		<path class="st4" d="M443.4,249.5c0,29.2-73.4,61.7-73.4,90.9"/>
		<path class="st5" d="M443.5,316.7c6.4,77.3-64.2,47.9-76.3,77.3"/>
		<path class="st4" d="M329.1,513.7c-7.3-77.3,73.4-47.9,87.2-77.3"/>
		<path class="st4" d="M598.4,714.7c0,0-36.1,7.9-41.3,17.9c-22.9,43.6,42.5,144.2,38.6,193.3c-2.7,32.9-52.1,91.2-46.4,123.7
			c4.5,25.9,68.4,80.2,68.4,80.2"/>
		<path class="st4" d="M486.4,795.1c-35.2,77.6,68,166.5,95.9,131.2c16.7-21.2-70.2-60.6-60.3-97.8"/>
		<path class="st4" d="M510.9,963.4c-10.3,43.4,45.7,42.7,45.7,42.7"/>
		<path class="st4" d="M463.8,751.3c0,0,63.9-54.3,68.4-80.2c5.7-32.6-43.7-90.8-46.4-123.8c-3.9-49.1,61.5-149.7,38.6-193.3
			c-5.2-10-41.3-17.9-41.3-17.9"/>
		<path class="st4" d="M559.6,449.8c9.9,37.2-77,76.6-60.3,97.8c27.9,35.4,131.1-53.6,95.9-131.2"/>
		<path class="st4" d="M525,627.5c0,0,56.1,0.7,45.7-42.7"/>
		<g>
			<path class="st4" d="M566.7,354.3c-0.6-33.1-60.2-80.9-69.1-112.7c-13.2-47.5,31.9-158.7,1.1-197.1c-7-8.8-43.9-9.7-43.9-9.7"/>
			<path class="st4" d="M551.5,131.9c16.8,34.6-61,89.9-40.6,107.5c34.1,29.4,118.5-77.5,69.2-147"/>
			<path class="st4" d="M551.3,313c0,0,55.2-10,36.8-50.6"/>
		</g>
		<path class="st4" d="M743.7,860.6c-73.2,117.7,5.6,190.6,0.8,242.4c-3.2,34.7-56.2,95.6-50.6,130c4.5,27.4,24.6,63.5,60.4,28.6"/>
		<path class="st4" d="M626,972.4c-38.1,81.4,85.4,167.7,115.3,130.8c17.9-22.2-69-48.5-68.4-72.2c0.4-15.4,16-18.3,16-18.3"/>
		<path class="st4" d="M654.6,1141.5c-11.4,45.7,53.1,42.3,53.1,42.3"/>
		<path class="st4" d="M791.9,909.2c6,69.8-76.9,73.8-76.9,99.8"/>
		<path class="st4" d="M817.5,997c0,29.2-73.4,61.7-73.4,90.9"/>
		<path class="st4" d="M817.5,1064.2c7.3,77.3-73.4,47.9-87.2,77.3"/>
		<path class="st4" d="M703.2,1261.2c-7.3-77.3,73.4-47.9,87.2-77.3"/>
		<path class="st4" d="M682.5,941c35.8,34.9,55.9-1.2,60.4-28.6c5.6-34.4-47.4-95.3-50.6-130c-4.8-51.8,74-124.7,0.8-242.4"/>
		<path class="st4" d="M747.9,692.1c0,0,15.6,2.9,16,18.3c0.6,23.7-86.3,50-68.4,72.2c29.9,36.9,153.4-49.4,115.3-130.8"/>
		<path class="st4" d="M729.1,863.2c0,0,64.5,3.4,53.1-42.3"/>
		<path class="st4" d="M721.8,688.4c0-26-82.9-30-76.9-99.8"/>
		<path class="st4" d="M692.7,767.3c0-29.2-73.4-61.7-73.4-90.9"/>
		<path class="st4" d="M706.5,820.9c-13.8-29.4-94.5,0-87.2-77.3"/>
		<path class="st4" d="M646.4,863.3c13.8,29.4,94.5,0,87.2,77.3"/>
		<path class="st4" d="M743.7,173.1c-73.2,117.7,5.6,190.6,0.8,242.4c-3.2,34.7-56.2,95.6-50.6,130c4.5,27.4,24.6,63.5,60.4,28.6"/>
		<path class="st4" d="M626,284.9c-38.1,81.4,85.4,167.7,115.3,130.8c17.9-22.2-69-48.5-68.4-72.2c0.4-15.4,16-18.3,16-18.3"/>
		<path class="st4" d="M654.6,454c-11.4,45.7,53.1,42.3,53.1,42.3"/>
		<path class="st4" d="M791.9,221.7c6,69.8-76.9,73.8-76.9,99.8"/>
		<path class="st4" d="M817.5,309.5c0,29.2-73.4,61.7-73.4,90.9"/>
		<path class="st4" d="M817.5,376.7c7.3,77.3-73.4,47.9-87.2,77.3"/>
		<path class="st4" d="M703.2,573.7c-7.3-77.3,73.4-47.9,87.2-77.3"/>
	</g>
</g>
</svg>
