<?xml version="1.0" encoding="utf-8"?>
<!-- Generator: Adobe Illustrator 23.0.4, SVG Export Plug-In . SVG Version: 6.00 Build 0)  -->
<svg version="1.1" id="Capa_1" xmlns="http://www.w3.org/2000/svg" xmlns:xlink="http://www.w3.org/1999/xlink" x="0px" y="0px"
	 viewBox="0 0 306.8 114" style="enable-background:new 0 0 306.8 114;" xml:space="preserve">
<style type="text/css">
	.st0{fill:#E1DCD9;}
</style>
<title>logo</title>
<path class="st0" d="M0,70.7l7.1,2.6v33.2L0,104V70.7z"/>
<path class="st0" d="M31.1,103.2l7.2-13.5L26.2,78.1l17.4,3.2l-16.4,30.4L10.1,75.2l8.8,1.6L31.1,103.2z"/>
<path class="st0" d="M40.7,104.5c-0.4,0.6-0.3,1.4,0.2,1.9c0.7,0.8,1.5,1.5,2.5,2c1.2,0.7,2.4,1.3,3.6,1.8s2.5,1.2,4,1.8
	s2.4,1.1,3,1.5L34.7,114l15.2-27.2c-1.8-3.3-3.1-5.4-4.1-6.3l9.5-0.3l17.9,32.7l-9.1,0.3l-6.2-10.8l-16.2,0.4L40.7,104.5z
	 M50.2,87.3l-8.1,14.9l15.5-0.4L50.2,87.3z"/>
<path class="st0" d="M75,111.9V84.2l-5.8-3.8l11.2-3.2l24.4,22L104.7,87c0-1.8-1-3.8-3-5.9c-1.9-1.9-4-3.5-6.3-4.9
	c-1.5-1-3.2-1.6-5-2l14.8-4.2v33.2l-7.7,2.2l-22-20.9v27.1L75,111.9z"/>
<path class="st0" d="M113.7,89.4c-0.3,0.6-0.3,1.3,0.2,1.8c0.6,0.5,1.3,0.8,2.1,0.7c1,0.1,2,0.1,3,0c1,0,2.1-0.2,3.3-0.3
	c0.8-0.1,1.7-0.1,2.5-0.1l-16.2,10.6l12.8-35.2c-1.5-2.4-2.6-3.8-3.4-4.2l7.9-5.2l15,23.4l-7.6,5l-5.2-7.6l-13.5,8.8L113.7,89.4z
	 M121.7,67.3l-6.8,19.1l12.9-8.5L121.7,67.3z"/>
<path class="st0" d="M150.5,36.1l-2.8,14.7l8.7-12.2l-8.1,13.7l8.1-2l-8.7,4.6l2.8,9.7l-4.2-7.5l-4.1,15.4l2.6-14.7L136.3,70
	l8.1-13.8l-8.3,2.1l8.7-4.6l-2.8-9.5l4.3,7.4L150.5,36.1z"/>
<path class="st0" d="M189,29.2c1.5,0.5,2,1.7,1.4,3.4c-0.1,0.5-0.3,0.9-0.6,1.3L181.5,48l-22.7,13.6V30.5l-3.9,0.2l21.8-13.1
	c2.9-1.7,5.3-2.4,7.4-2.1s3.1,1.7,3.1,4c-0.1,2-0.7,4-1.8,5.8c-1.2,2.2-2.7,4.1-4.5,5.8C184.4,29.2,187,28.7,189,29.2z M178.2,31.1
	c1.1-2.1,1.6-4.5,1.5-6.9c0.1-1.1-0.2-2.3-0.8-3.2c-0.5-0.7-1.3-1.1-2.2-1.1s-1.9,0.2-2.8,0.4c-1,0.4-2,0.8-2.9,1.4l-4.6,2.8V40
	l7.3-4.4C175.5,34.5,177,33,178.2,31.1L178.2,31.1z M177,34.2c-0.5,0.2-1,0.6-1.5,0.9l-9.2,5.5v15.9l7-4.2l9-15.2
	C185.4,31.5,183.7,30.5,177,34.2z"/>
<path class="st0" d="M221.9,3.7c2,1,3.2,3.1,3.1,5.3c-0.1,2.4-1.1,4.7-2.8,6.5c-1.8,2.1-4.1,3.6-6.8,4.3l-10.9,2.8
	c1.2,1.6,2.9,2.8,4.8,3.5c2.2,1,4.4,1.7,6.8,2.2c2.3,0.5,4.5,1.1,6.6,2c1.7,0.6,3.3,1.7,4.4,3.1l-12.5,3.2
	c-5.4-4.1-8.9-8.9-10.5-14.4l3.8-1c1-0.2,1.9-0.6,2.9-1c1-0.5,1.9-1.1,2.7-1.8c0.9-0.8,1.7-1.8,2.2-2.9c0.5-1.2,0.8-2.6,0.8-3.9
	c0-2.8-0.9-4.6-2.8-5.4c-2.2-0.8-4.6-0.8-6.9-0.1l-5.1,1.3V40l-7.9,2V8.5l19.6-5C217,2.6,219.8,2.7,221.9,3.7z"/>
<path class="st0" d="M235.3,23.6c-0.4,0.6-0.3,1.5,0.2,2c0.7,0.9,1.5,1.6,2.5,2.2c1.2,0.8,2.4,1.4,3.6,2.1s2.5,1.3,3.9,2
	s2.4,1.3,3,1.7l-19.3-0.8l15.3-26.3c-1.8-3.4-3.1-5.6-4.1-6.6l9.4,0.4l17.9,33.9l-9.1-0.4l-6.2-11.3l-16-0.5L235.3,23.6z M244.8,7.1
	l-8.1,14.3l15.5,0.6L244.8,7.1z"/>
<path class="st0" d="M280.3,37.5l3.7,1.3c2,0.7,4.1,1.1,6.2,1c1.9,0,3.8-0.4,5.6-1.1c1.6-0.6,3.1-1.4,4.6-2.2
	c1.4-0.8,2.6-1.5,3.8-2.3c0.8-0.6,1.7-1.1,2.6-1.4l-5.5,12.7l-30.5-10.8L296.1,11L291,9.3c-1.7-0.6-3.5-0.8-5.3-0.6
	c-1.9,0.2-3.7,0.7-5.4,1.7c-1.7,0.9-3.3,2-4.8,3.1c-1.7,1.3-3.2,2.7-4.7,4.2h-0.1l5.1-14.2L305.7,14L280.3,37.5z"/>
</svg>
