<?xml version="1.0" encoding="utf-8"?>
<!-- Generator: Adobe Illustrator 23.0.4, SVG Export Plug-In . SVG Version: 6.00 Build 0)  -->
<svg version="1.1" id="Capa_1" xmlns="http://www.w3.org/2000/svg" xmlns:xlink="http://www.w3.org/1999/xlink" x="0px" y="0px"
	 viewBox="0 0 229.2 445.5" style="enable-background:new 0 0 229.2 445.5;" xml:space="preserve">
<style type="text/css">
	
		.st0{fill:none;stroke:#080808;stroke-width:30;stroke-linecap:round;stroke-linejoin:round;stroke-miterlimit:10;stroke-dasharray:0,20;}
</style>
<title>misc</title>
<g>
	<path class="st0" d="M89.3,430.5c73.2-117.7-5.6-190.6-0.8-242.4c3.2-34.7,56.2-95.6,50.6-130c-4.5-27.4-24.6-63.5-60.4-28.6"/>
	<path class="st0" d="M207,318.7c38.1-81.4-85.4-167.7-115.3-130.8c-17.9,22.2,69,48.5,68.4,72.2c-0.4,15.4-16,18.3-16,18.3"/>
	<path class="st0" d="M178.4,149.6c11.4-45.7-53.1-42.3-53.1-42.3"/>
	<path class="st0" d="M41.1,381.9c-6-69.8,76.9-73.8,76.9-99.8"/>
	<path class="st0" d="M15.5,294.1c0-29.2,73.4-61.7,73.4-90.9"/>
	<path class="st0" d="M15.5,226.9c-7.3-77.3,73.4-47.9,87.2-77.3"/>
	<path class="st0" d="M129.8,29.9c7.3,77.3-73.4,47.9-87.2,77.3"/>
</g>
</svg>
