<?xml version="1.0" encoding="utf-8"?>
<!-- Generator: Adobe Illustrator 23.0.4, SVG Export Plug-In . SVG Version: 6.00 Build 0)  -->
<svg version="1.1" id="Capa_1" xmlns="http://www.w3.org/2000/svg" xmlns:xlink="http://www.w3.org/1999/xlink" x="0px" y="0px"
	 viewBox="0 0 229.2 445.5" style="enable-background:new 0 0 229.2 445.5;" xml:space="preserve">
<style type="text/css">
	
		.st0{fill:none;stroke:#E1DCD9;stroke-width:30;stroke-linecap:round;stroke-linejoin:round;stroke-miterlimit:10;stroke-dasharray:0,20;}
</style>
<title>misc</title>
<path class="st0" d="M103.5,16.9c25.4,12.2,35.2,44.8,30.7,72.6c-4.5,27.8-20,52.4-33.6,77.1c-7.6,13.9-15,29.3-12.3,45
	c4.4,25.3,31.9,38.8,46.8,59.7c19.2,27,15.3,65.3-0.9,94.3s-42.5,50.7-68.1,71.7"/>
<path class="st0" d="M106.9,398c16.2-20.5,45.7-24.9,65.3-42c19.4-17,26.4-46.6,16.8-70.5"/>
<path class="st0" d="M134,270.9c-3.9-8.4-7.6-16.9-9.2-26c-1.6-9.1-0.7-18.9,4.2-26.7c8.1-13,24.8-17.3,37.2-26.3
	c17.9-13,26.7-37.4,21.1-58.8"/>
<path class="st0" d="M109.7,152c-0.2-14.6,10.6-27.1,22.4-35.7s25.3-15.1,35.2-25.8c16.3-17.7,19.7-46.1,7.9-67.1"/>
<path class="st0" d="M91.9,414c15-15.4,20.9-40.7,10.1-59.3c-6.9-11.8-19-19.4-30-27.5c-12.8-9.5-24.9-20.7-32.4-34.8
	c-7.5-14.1-9.9-31.6-3.4-46.2"/>
<path class="st0" d="M88.4,196c-1.1-16-12.9-29.2-25.1-39.6s-25.9-20.1-33.4-34.3c-11.2-21.3-4.1-50.5,15.6-64.2"/>
</svg>
