<?xml version="1.0" encoding="utf-8"?>
<!-- Generator: Adobe Illustrator 23.0.4, SVG Export Plug-In . SVG Version: 6.00 Build 0)  -->
<svg version="1.1" id="Capa_1" xmlns="http://www.w3.org/2000/svg" xmlns:xlink="http://www.w3.org/1999/xlink" x="0px" y="0px"
	 viewBox="0 0 229.2 445.5" style="enable-background:new 0 0 229.2 445.5;" xml:space="preserve">
<style type="text/css">
	
		.st0{fill:none;stroke:#E1DCD9;stroke-width:30;stroke-linecap:round;stroke-linejoin:round;stroke-miterlimit:10;stroke-dasharray:0,20;}
</style>
<title>misc</title>
<path class="st0" d="M72,419.5c-13.5-15.8-20.8-38.3-13.7-57.8c6-16.8,21.3-28.7,37.2-36.8s33.2-13.8,48.3-23.3
	c15.1-9.6,28.4-24.4,29.8-42.3c1.7-21.1-13.4-39.9-29.9-53.1c-16.6-13.2-35.8-23.6-48.6-40.5c-16.2-21.4-19.3-52.1-7.5-76.3
	c5.3-11,13.3-20.7,16.7-32.3s0-26.9-11.5-31.1"/>
<path class="st0" d="M167.3,229.7c-15.1-10.2-17-32.4-10.8-49.6s18.4-31.3,27.3-47.3c8.8-16,14-36.1,5.2-52.1"/>
<path class="st0" d="M179.5,142.5c-14.1-10.4-35.5-11.4-44.8-26.3c-6.2-10-4.5-23,0-33.9s11.4-20.6,15.7-31.5
	c4.3-10.9,5.4-24.2-1.3-33.7"/>
<path class="st0" d="M85.9,326.6c5.3-14.6,1.2-32.1-10-42.7c-6.9-6.6-16-10.6-23.2-16.9c-15.7-13.7-20.1-38.8-10-57"/>
<path class="st0" d="M85,298.9c-8.7-8-10.3-22.7-3.5-32.4c5.7-8.1,15.9-12.3,20.8-21c5.2-9.2,2.2-22.2-6.6-28.2"/>
<path class="st0" d="M82.2,149.1c-2-15.9-11.1-30.8-24.2-39.9c-5.9-4.1-12.7-7.2-17.7-12.4c-8.4-8.7-10.3-21.8-9.2-33.8"/>
<path class="st0" d="M66.1,402.9c1-5.5,5.5-9.9,10.6-12.1c5.2-2.2,10.9-2.5,16.5-2.3c10.8,0.4,21.4,2.4,32.2,2.5
	c10.8,0.1,22.1-2,30.4-8.9c7.3-6.1,11.4-15.3,12.8-24.7c1.4-9.4,0.2-19-1.8-28.3"/>
<path class="st0" d="M107.5,180.9c-19.9-4-39.8-8.4-59.5-13.2c-6.7-1.7-13.7-3.5-19.2-7.8s-9-11.8-6.7-18.3"/>
</svg>
