<?xml version="1.0" encoding="utf-8"?>
<!-- Generator: Adobe Illustrator 23.0.4, SVG Export Plug-In . SVG Version: 6.00 Build 0)  -->
<svg version="1.1" id="Capa_1" xmlns="http://www.w3.org/2000/svg" xmlns:xlink="http://www.w3.org/1999/xlink" x="0px" y="0px"
	 viewBox="0 0 229.2 445.5" style="enable-background:new 0 0 229.2 445.5;" xml:space="preserve">
<style type="text/css">
	
		.st0{fill:none;stroke:#080808;stroke-width:30;stroke-linecap:round;stroke-linejoin:round;stroke-miterlimit:10;stroke-dasharray:0,20;}
</style>
<title>misc</title>
<path class="st0" d="M15.1,21.4C27.5,20,40,18.6,52.3,20.7s24.4,8.1,31,18.6c9.6,15.3,5.5,35.1,0.7,52.6s-9.5,37-0.6,52.8
	c6.5,11.6,19,18.4,31.4,23.1s25.5,8.2,36.5,15.6c18.3,12.5,28.2,36.4,23.9,58.2c-5,25.8-27.1,45.8-32.3,71.6
	c-3.4,17.2,1.5,36,13.1,49.2c13.8,15.7,36.1,24.3,44.3,43.5"/>
<path class="st0" d="M163,189c-16.7-17.3-23.3-43.7-16.9-66.8c4.6-16.8,15.3-31.2,20.7-47.8s3.3-38-11.8-46.7"/>
<path class="st0" d="M153.4,276.1c0-18-15.5-32.4-31.8-40.3c-16.3-7.8-34.5-11.6-49.6-21.5c-16.9-11.1-28.4-29-35.3-47.9
	s-9.7-39.1-12.3-59.1"/>
<path class="st0" d="M137.8,332.8c-16.2,14.2-38.7,20.9-60.1,18s-41.2-15.6-52.9-33.7"/>
<path class="st0" d="M19.3,257c13.3-9.4,32-7.4,46.7-0.4c14.8,7,27,18.2,40.6,27.3s29.8,16.2,45.9,13.3"/>
<path class="st0" d="M176,376.5c-6.3-11.3-3.5-25.7,2.5-37.2s14.7-21.4,20.9-32.8c7.5-13.8,11.1-29.7,10.1-45.4"/>
<path class="st0" d="M181.9,205.5c-4.3-8.6-2.1-19.2,2.5-27.6c4.6-8.5,11.3-15.5,16.6-23.6c13.4-20.4,16.9-46.9,9.3-70.1"/>
</svg>
