<?xml version="1.0" encoding="utf-8"?>
<!-- Generator: Adobe Illustrator 23.0.4, SVG Export Plug-In . SVG Version: 6.00 Build 0)  -->
<svg version="1.1" id="Capa_1" xmlns="http://www.w3.org/2000/svg" xmlns:xlink="http://www.w3.org/1999/xlink" x="0px" y="0px"
	 viewBox="0 0 229.2 445.5" style="enable-background:new 0 0 229.2 445.5;" xml:space="preserve">
<style type="text/css">
	
		.st0{fill:none;stroke:#E1DCD9;stroke-width:30;stroke-linecap:round;stroke-linejoin:round;stroke-miterlimit:10;stroke-dasharray:0,20;}
</style>
<title>misc</title>
<g>
	<path class="st0" d="M140,15.1c-73.2,117.7,5.6,190.6,0.8,242.4c-3.2,34.7-56.2,95.6-50.6,130c4.5,27.4,24.6,63.5,60.4,28.6"/>
	<path class="st0" d="M22.3,126.9c-38.1,81.4,85.4,167.7,115.3,130.8c17.9-22.2-69-48.5-68.4-72.2c0.4-15.4,16-18.3,16-18.3"/>
	<path class="st0" d="M50.9,296c-11.4,45.7,53.1,42.3,53.1,42.3"/>
	<path class="st0" d="M188.2,63.7c6,69.8-76.9,73.8-76.9,99.8"/>
	<path class="st0" d="M213.8,151.5c0,29.2-73.4,61.7-73.4,90.9"/>
	<path class="st0" d="M213.8,218.7c7.3,77.3-73.4,47.9-87.2,77.3"/>
	<path class="st0" d="M99.5,415.7c-7.3-77.3,73.4-47.9,87.2-77.3"/>
</g>
</svg>
