<?xml version="1.0" encoding="utf-8"?>
<!-- Generator: Adobe Illustrator 23.0.4, SVG Export Plug-In . SVG Version: 6.00 Build 0)  -->
<svg version="1.1" id="Capa_1" xmlns="http://www.w3.org/2000/svg" xmlns:xlink="http://www.w3.org/1999/xlink" x="0px" y="0px"
	 viewBox="0 0 229.2 445.5" style="enable-background:new 0 0 229.2 445.5;" xml:space="preserve">
<style type="text/css">
	
		.st0{fill:none;stroke:#E1DCD9;stroke-width:30;stroke-linecap:round;stroke-linejoin:round;stroke-miterlimit:10;stroke-dasharray:0,20;}
</style>
<g>
	<path class="st0" d="M112,21.2c0,0-33.8,14.9-36.9,25.7c-13.8,47.3,70.3,132.9,76.2,181.8c3.9,32.8-33,99.7-20.9,130.5
		c9.6,24.5,83,65,83,65"/>
	<path class="st0" d="M18.1,122.2c-19.1,83,99.7,149.7,120,109.5c12.2-24.1-80.8-45.5-78.5-83.9"/>
	<path class="st0" d="M75.6,282.3c-1.5,44.6,53.3,32.8,53.3,32.8"/>
</g>
<path class="st0" d="M167.8,50.5c-7.4,3.6-14.8,7.4-21,12.8S135.6,75.9,134.4,84c-1.5,10.3,3.2,20.5,2.8,30.9
	c-0.6,15.3-13.7,29.2-29,30.6"/>
<path class="st0" d="M206.7,115.8c-6.1,1.9-10.8,7.2-13.2,13.2s-2.8,12.5-2.7,18.9c0.4,13.5,3.3,26.8,4,40.2
	c0.7,13.5-1,27.7-8.8,38.7s-23.1,17.4-35.4,11.8"/>
<path class="st0" d="M168,396.7c-14.7-19.6-13.7-49.4,2.3-68c6.4-7.5,14.8-13,21.4-20.3c11-12.1,16.7-29,15.3-45.3"/>
</svg>
