<?xml version="1.0" encoding="utf-8"?>
<!-- Generator: Adobe Illustrator 23.0.4, SVG Export Plug-In . SVG Version: 6.00 Build 0)  -->
<svg version="1.1" id="Capa_1" xmlns="http://www.w3.org/2000/svg" xmlns:xlink="http://www.w3.org/1999/xlink" x="0px" y="0px"
	 viewBox="0 0 229.2 445.5" style="enable-background:new 0 0 229.2 445.5;" xml:space="preserve">
<style type="text/css">
	
		.st0{fill:none;stroke:#E1DCD9;stroke-width:30;stroke-linecap:round;stroke-linejoin:round;stroke-miterlimit:10;stroke-dasharray:0,20;}
</style>
<title>misc</title>
<path class="st0" d="M81.1,20C69,33.2,69.5,54.2,76.6,70.6s19.6,29.8,30.3,44.1s20.2,31,19.5,48.9c-1.3,33.4-36,56-45.2,88.2
	c-6.6,23.2,1.1,48.5,14.2,68.9s30.9,37,47.1,55s31.1,38.2,36.3,61.8"/>
<path class="st0" d="M109.3,333.5c-7.7-6.8-5.2-20.4,2.6-27.1s19-7.8,29.3-7.1c10.3,0.6,20.6,2.8,30.8,1.4
	c21.4-2.8,39.4-22.4,40.3-44c0.6-13.9-7.4-29.4-21.1-32"/>
<path class="st0" d="M77.6,260.7c-2.3-10,5.1-20.2,14.4-24.6c9.3-4.3,20-4.2,30.3-3.7s20.9,1.1,30.5-2.4
	c17.3-6.4,27.8-27.1,22.7-44.8"/>
<path class="st0" d="M124.3,164.9c-3.1-9,0-19.1,5.1-27.1s12-14.8,17.4-22.6c9.3-13.2,14.2-30.3,9.4-45.7S135,42.1,119.3,45.6"/>
<path class="st0" d="M25,100.6c8.5-0.3,15.6,7.2,17.7,15.4s0.6,16.8-1,25.1s-3.2,16.9-1.1,25.1c3.2,12.5,14.7,21.5,27.1,25.3
	s25.6,3.2,38.5,2.6"/>
<path class="st0" d="M27.6,250c-5.4,7.7-9.3,16.6-10.2,25.9c-0.9,9.4,1.5,19.2,7.5,26.4c5.4,6.5,13.5,10.4,21.7,12.5
	c15,3.8,31.4,1.7,45-5.7"/>
<path class="st0" d="M27.7,364.6c-3.1,3.9-2.6,9.8,0.1,14s7.3,6.8,11.9,8.6c10,3.9,21.2,4.4,31.5,1.4c12-3.5,22.2-11.3,33.7-16.2
	s26.2-6.2,35.3,2.4"/>
</svg>
